<svg xmlns="http://www.w3.org/2000/svg" width="30" height="30" fill="none"><path fill="#282828" fill-rule="evenodd" d="m9.886 2.318-.204-.07c-.205-.07-.41-.14-.546-.07L7.5 1.686 9.068.984c.41-.211.818-.352 1.228-.492l.204-.07.205.07.613.21c1.978.563 4.023.422 6.068-.35.103-.036.205-.089.307-.141.102-.053.205-.106.307-.14L18.205 0h.204c.477.07.887.21 1.296.351l1.431.492-2.113 1.054c-1.705.703-3.41 1.124-5.182 1.124-1.705 0-3.068-.351-3.955-.703zm-4.747 4.3.247-.084c1.841-.492 3.819-.422 5.796.351 1.295.492 2.59.703 4.023.703 2.863 0 5.727-1.054 8.386-3.092l1.023-.843.34-.28-.613-.492a3.031 3.031 0 0 0-.75-.563l-.41-.28-.34.28a.67.67 0 0 0-.17.141c-.052.053-.103.105-.171.14-3.614 2.81-7.227 3.584-10.636 2.249-2.455-.914-4.91-1.124-7.364-.352-.205.07-.41.141-.682.211l-.136.07-.205.211c0 .044-.026.06-.062.083a.378.378 0 0 0-.074.058c-.136.21-.29.404-.443.597a7.632 7.632 0 0 0-.443.597L1.159 8.361l2.114-1.124c.27 0 .497-.089.682-.16.048-.019.093-.037.136-.051.329-.17.702-.294 1.048-.409zM6.886 11.1c-1.909.562-3.681 1.616-5.25 3.302-.14.096-.247.225-.345.341a2.826 2.826 0 0 1-.132.15L0 16.16l.068-1.756c.035-.219.053-.456.07-.702.017-.23.034-.466.067-.703v-.211l.136-.14.34-.352 1.433-1.194c1.363-.914 2.727-1.616 4.159-2.038 2.25-.632 4.704-.492 7.09.422 5.046 1.967 9.478-.914 12.342-3.724l.272-.28.478-.493.409.562c.077.106.144.212.209.314.108.17.209.328.336.46l.273.42-.341.282-.886.913c-2.319 2.038-7.637 5.832-13.773 3.513-1.978-.773-3.955-.843-5.796-.351zm1.364 4.566c1.84-.491 3.818-.421 5.796.352 2.181.843 7.772 2.037 14.045-3.794l1.023-1.054.068-.07.273-.281-.137-.352c-.068-.28-.204-.632-.34-.983l-.342-.984-.681.703a.704.704 0 0 1-.2.222c-.045.038-.093.08-.141.13-3 3.16-7.637 6.393-12.955 4.425-2.386-.913-4.84-1.053-7.09-.421-2.183.632-4.092 1.826-5.864 3.513v-.07L.682 18.125c0 .044-.026.06-.062.083a.38.38 0 0 0-.075.058l-.204.21.068.282c.034.175.085.351.136.527.052.175.103.351.137.527l.409 1.124.682-.914c.034-.07.085-.122.136-.175a.682.682 0 0 0 .136-.176l.119-.11c1.422-1.327 3.367-3.143 6.086-3.895zm9.341 7.588c-2.386-.913-4.841-1.054-7.091-.421-1.568.421-3.068 1.264-4.432 2.318l-.954.843-.273.281.614.562c.042 0 .058.027.08.064.014.023.03.05.056.077.1.103.2.168.326.25v.001c.047.03.097.063.151.1l.41.281.408-.351c.069-.07.205-.21.341-.281 1.228-1.054 2.591-1.756 4.023-2.108 1.84-.492 3.818-.421 5.796.352 1.636.632 4.977 1.405 9-.352l.136-.07.204-.21c0-.044.026-.06.062-.084a.377.377 0 0 0 .075-.057c.34-.422.682-.843.954-1.335l1.364-2.178-2.182 1.264c-3.204 1.827-6.136 2.178-9.068 1.054zm1.704 4.672a4.546 4.546 0 0 0-.272-.105c-2.387-.913-4.841-1.054-7.091-.421-.478.14-.955.28-1.432.491l-1.636.773-.41.21 1.364.493 1.228.421.204.07.205-.07c.068-.023.136-.054.204-.086.136-.062.273-.125.41-.125.136 0 .272-.07.408-.14 1.637-.422 3.41-.422 5.319.21.102.036.187.071.272.106.085.035.17.07.273.105l.34.141.205-.07.222-.065c.418-.12.863-.248 1.21-.427l1.91-.703-1.978-.491a8.449 8.449 0 0 0-.34-.106c-.12-.035-.24-.07-.342-.105a4.247 4.247 0 0 1-.273-.106zm9.682-13.384L30 13.49l-.068 1.615c0 .211-.017.44-.034.668a9.256 9.256 0 0 0-.034.667v.211l-.205.21c-.068.071-.136.124-.204.177a1.69 1.69 0 0 0-.205.175c-2.318 2.038-5.454 3.864-8.59 4.216-1.774.21-3.546 0-5.25-.633-1.978-.773-3.956-.843-5.796-.351-2.046.562-3.819 1.686-5.455 3.513l-.273.28-.477.633L3 24.24a4.747 4.747 0 0 0-.477-.773l-.273-.422.273-.35.886-.984c1.705-1.687 3.614-2.81 5.727-3.443 2.25-.632 4.705-.492 7.091.422 5.046 1.967 9.546-.984 12.341-3.724l.41-.422z" clip-rule="evenodd"/></svg>