<svg xmlns="http://www.w3.org/2000/svg" width="34" height="34" fill="none"><g stroke="#282828" stroke-miterlimit="10" stroke-width="1.214" clip-path="url(#a)"><path d="M8.32 21.323c1.922 0 3.845-.414 5.319-1.258 1.455-.845 2.192-1.96 2.192-3.073 0-1.114-.737-2.228-2.192-3.073-1.456-.845-3.379-1.258-5.32-1.258-1.94 0-3.845.413-5.318 1.258-1.456.845-2.192 1.959-2.192 3.073 0 1.114.736 2.228 2.192 3.073 1.473.844 3.396 1.258 5.319 1.258z"/><path d="M12.672 8.33c0 1.922.413 3.845 1.258 5.319.844 1.455 1.958 2.192 3.072 2.192s2.229-.737 3.073-2.192c.845-1.456 1.258-3.379 1.258-5.32 0-1.922-.413-3.845-1.258-5.318-.844-1.456-1.959-2.193-3.073-2.193-1.114 0-2.228.737-3.072 2.193-.845 1.455-1.258 3.396-1.258 5.319zm0 17.341c0-1.922.413-3.845 1.258-5.319.844-1.455 1.958-2.192 3.072-2.192s2.229.737 3.073 2.192c.845 1.456 1.258 3.379 1.258 5.32 0 1.922-.413 3.845-1.258 5.318-.844 1.456-1.959 2.193-3.073 2.193-1.114 0-2.228-.737-3.072-2.193-.845-1.473-1.258-3.396-1.258-5.319z"/><path d="M25.675 21.323c-1.922 0-3.845-.414-5.319-1.258-1.455-.845-2.192-1.96-2.192-3.073 0-1.114.737-2.228 2.192-3.073 1.456-.845 3.378-1.258 5.32-1.258 1.922 0 3.845.413 5.318 1.258 1.456.845 2.192 1.959 2.192 3.073 0 1.114-.736 2.228-2.192 3.073-1.473.844-3.396 1.258-5.319 1.258z"/></g><defs><clipPath id="a"><path fill="#fff" d="M0 0h34v34H0z"/></clipPath></defs></svg>