<svg xmlns="http://www.w3.org/2000/svg" width="34" height="34" fill="none"><g stroke="#282828" stroke-miterlimit="10" stroke-width="1.214" clip-path="url(#a)"><path d="M16.998 33.19a8.095 8.095 0 1 0 0-16.19 8.095 8.095 0 0 0 0 16.19zm0-16.192a8.095 8.095 0 1 0 0-16.19 8.095 8.095 0 0 0 0 16.19z"/><path d="M25.1 25.093a8.095 8.095 0 1 0 0-16.19 8.095 8.095 0 0 0 0 16.19z"/><path d="M8.904 25.093a8.095 8.095 0 1 0 0-16.19 8.095 8.095 0 0 0 0 16.19z"/></g><defs><clipPath id="a"><path fill="#fff" d="M0 0h34v34H0z"/></clipPath></defs></svg>