<svg xmlns="http://www.w3.org/2000/svg" width="34" height="34" fill="none"><g stroke="#282828" stroke-miterlimit="10" stroke-width="1.214" clip-path="url(#a)"><path d="m17.004 8.818 8.106 4.092-8.106 4.092-8.106-4.092 8.106-4.092z"/><path d="m17.004 17-8.106-4.09v8.183l8.106 4.092V17zm-8.11-4.09L.809 8.816V17l8.085 4.092v-8.184zm8.11 12.276-8.106-4.092v8.183l8.106 4.092v-8.183z"/><path d="M8.894 21.092.809 17v8.183l8.085 4.092v-8.183zm0-16.366 8.105 4.091-8.105 4.092L.809 8.817l8.085-4.091zm16.216 0 8.085 4.091-8.085 4.092-8.106-4.092 8.106-4.091z"/><path d="m17.004.635 8.106 4.092-8.106 4.091-8.106-4.091L17.004.635zm0 16.365 8.106-4.091v8.183l-8.106 4.092V17z"/><path d="m25.105 12.91 8.085-4.092v8.184l-8.084 4.092V12.91zm-8.101 12.276 8.106-4.092v8.183l-8.106 4.092v-8.183z"/><path d="M25.105 21.092 33.19 17v8.183l-8.084 4.092v-8.183z"/></g><defs><clipPath id="a"><path fill="#fff" d="M0 0h34v34H0z"/></clipPath></defs></svg>