<svg xmlns="http://www.w3.org/2000/svg" width="34" height="34" fill="none"><g stroke="#282828" stroke-miterlimit="10" stroke-width="1.214" clip-path="url(#a)"><path d="M22.403 11.604a3.608 3.608 0 0 1-3.598 3.597m-3.598 3.597a3.608 3.608 0 0 1 3.598-3.598M29.594 4.407a3.608 3.608 0 0 1-3.598 3.598M8.008 25.995a3.608 3.608 0 0 1-3.598 3.598m3.602-3.598a3.608 3.608 0 0 1 3.598-3.598M.809 33.19a3.608 3.608 0 0 1 3.597-3.597M29.59 4.407A3.608 3.608 0 0 1 33.188.81M22.406 11.604a3.608 3.608 0 0 1 3.598-3.598M15.203 18.8a3.609 3.609 0 0 1-3.598 3.598M26.004 15.2a3.608 3.608 0 0 1-3.598 3.598m-3.601 3.6a3.608 3.608 0 0 1 3.598-3.598M33.188 8.006a3.608 3.608 0 0 1-3.598 3.598M11.61 29.593a3.608 3.608 0 0 1-3.598 3.598m3.593-3.598a3.608 3.608 0 0 1 3.598-3.598m10.793-10.794a3.608 3.608 0 0 1 3.598-3.598M18.805 22.398a3.608 3.608 0 0 1-3.598 3.597m3.598-17.989a3.608 3.608 0 0 1-3.598 3.598m-3.602 3.597a3.608 3.608 0 0 1 3.598-3.598M26.004.81a3.608 3.608 0 0 1-3.598 3.597m-18 17.991A3.608 3.608 0 0 1 .81 25.995m3.6-3.597A3.608 3.608 0 0 1 8.008 18.8M18.805 8.005a3.608 3.608 0 0 1 3.598-3.598M11.61 15.2a3.608 3.608 0 0 1-3.598 3.598m21.582.002a3.609 3.609 0 0 1-3.598 3.598m-3.59 3.597a3.608 3.608 0 0 1 3.598-3.598M15.207 33.19a3.608 3.608 0 0 1 3.598-3.597M29.59 18.798a3.608 3.608 0 0 1 3.598-3.598M22.403 25.995a3.608 3.608 0 0 1-3.598 3.598M15.203 4.407a3.608 3.608 0 0 1-3.598 3.598m-3.593 3.599a3.608 3.608 0 0 1 3.598-3.598M.809 18.798A3.608 3.608 0 0 1 4.406 15.2M15.207 4.407A3.608 3.608 0 0 1 18.805.81M8.008 11.604A3.608 3.608 0 0 1 4.41 15.2m28.778 7.198a3.608 3.608 0 0 1-3.598 3.597m-3.594 3.598a3.608 3.608 0 0 1 3.598-3.598m-3.59 3.598a3.608 3.608 0 0 1-3.598 3.598M11.61.81a3.608 3.608 0 0 1-3.598 3.597M4.41 8.005a3.608 3.608 0 0 1 3.598-3.598M4.406 8.006A3.608 3.608 0 0 1 .81 11.604M29.59 33.19a3.608 3.608 0 0 1 3.598-3.597M.809 4.407A3.608 3.608 0 0 1 4.406.81"/></g><defs><clipPath id="a"><path fill="#fff" d="M0 0h34v34H0z"/></clipPath></defs></svg>